<?xml version="1.0" encoding="utf-8"?>
<svg version="1.1" xmlns="http://www.w3.org/2000/svg" xmlns:xlink="http://www.w3.org/1999/xlink">

	<symbol id="logo" viewBox="0 0 500 200" preserveAspectRatio="xMaxYMin" x="0px" y="0px">
		<title>logo</title>
		<path fill="var(--color-white)" d="M25.5,41.1c16.8-19.3,43.5-32.2,71.6-33c0.1,2-0.6,4.4-3.5,4.2C79.8,14,67.1,20.9,59.5,31C46.5,48,43.5,68.9,42,88.7
			c-1.3,17,0,34.1,3.2,50.9c3.6,16.6,10.2,34,25.4,45.4c13.7,10.5,33.5,12.5,50.8,9.3c16.6-3,31.4-12.4,39.6-25.2
			c7.9-11.7,10.2-25.3,10.8-38.6c1-0.1,3-0.3,4.1-0.3c-0.1,18.5-5.1,38.2-20.1,52c-12.7,12.1-31.9,17.8-50.4,17.7
			c-26.1,0.4-53-7.4-71.5-23.8c-18-14.9-28-36-30.7-57.2C-0.4,91.8,6.1,62.9,25.5,41.1z"/>
		<path fill="var(--color-white)" d="M111.7,8.3c12.1,0.6,22.9,5.6,33.9,9.5c6.5,2.4,15.6,0.9,17.8-5.7c1.6,0,3.1,0,4.7-0.1c0,17.4-0.1,34.7,0.1,52.1
			c-0.8,0-2.4-0.1-3.2-0.1c-2-16.4-11.4-32.5-27-42.2c-7.7-4.9-16.8-7.8-26.2-9.2C111.8,11.2,111.7,9.8,111.7,8.3z"/>
		<path fill="var(--color-white)" d="M279.4,129.9c2-0.4,4.2-0.2,6.2-0.1c3.9,0.3,8.1,1.3,10.9,4.3c2.4,2.5,2.8,6.2,2.1,9.5c-0.7,3.2-3.1,5.8-6,7.1
			c-1.3,0.6-2.7,0.8-4,1.1c3.1,0.1,6.2,1.3,8.7,3.3c5.9,4.8,5.6,15.2-0.6,19.7c-4.9,3.6-11.3,3.7-17.1,3.6c0-0.3-0.1-0.8-0.2-1.1
			c3.1,0,6.3,0.1,9.1-1.3c1.6-0.9,2.8-2.5,3.3-4.3c0.9-3.2,0.7-6.6,0.6-9.9c-0.2-2.6-0.8-5.7-3.2-7.2c-2.9-1.7-6.4-1.5-9.7-1.5
			c0-0.5,0-0.9,0-1.4c2.9-0.1,6.2,0.3,8.7-1.5c2.6-2,2.9-5.5,3-8.5c0-3.2-0.5-6.9-3.1-9c-2.4-1.9-5.6-1.8-8.5-1.9
			C279.4,130.5,279.4,130.1,279.4,129.9z"/>
		<path fill="var(--color-white)" d="M181.9,130.3c6.8,0,13.5,0,20.3,0c0,0.4-0.1,0.7-0.1,1.1c-1.9-0.1-3.7,0-5.6,0c0,15.5,0,31,0,46.5c1.9,0,3.7,0,5.6,0
			c0,0.4,0.1,0.7,0.1,1.1c-6.8,0-13.5,0-20.3,0c0-0.3,0-0.8,0-1c2.1-0.1,4.3,0,6.4,0c0.1-15.5,0.1-31,0-46.5c-2.1,0-4.3,0.1-6.4,0
			C181.9,131.1,181.9,130.6,181.9,130.3z"/>
		<path fill="var(--color-white)" d="M215.4,129.7c6.8,0,13.5-0.1,20.3,0c0,0.2,0,0.7,0,1c-2.1,0.2-4.3,0-6.4,0.1c0,15.5,0,31,0,46.5c2,0,4-0.1,6.1,0
			c0.7-0.2,0.6,1.3,0,1.1c-6.6,0-13.3,0-19.9,0c0-0.3,0-0.8,0-1.1c1.9-0.1,3.9,0,5.8,0c0-7.7,0-15.4,0-23.1c-6.3,0-12.5,0-18.8,0
			c-0.4-0.3-0.2-0.9-0.3-1.3c6.3,0,12.7,0,19,0c0-7.3,0.1-14.7,0-22c-1.9,0-3.9,0-5.8,0C215.4,130.5,215.4,129.9,215.4,129.7z"/>
		<path fill="var(--color-white)" d="M238,129.7c7-0.1,14,0,21.1-0.1c0,0.3,0,0.8,0,1.1c-2.2,0-4.3,0-6.5,0c0,15.5,0,31,0,46.4c2.2,0,4.3,0,6.5,0
			c0,0.3,0,0.8,0,1.1c-7-0.1-14,0.1-21.1-0.1c0.1-0.4,0.2-0.7,0.3-1c2.1,0,4.1,0,6.2,0c0.1-15.4,0-30.8,0.1-46.3l-0.2-0.2
			c-2-0.1-4,0-6,0C238.1,130.4,238,130.1,238,129.7z"/>
		<path fill="var(--color-white)" d="M261.8,129.7c4.8-0.1,9.7,0,14.6,0c0,16.2,0,32.5,0,48.7c-4.9,0-9.7,0-14.6,0c0-0.4,0-0.7,0-1.1c2.1,0,4.3,0,6.4,0
			c0-15.5,0-31,0-46.5c-2.1,0-4.3,0-6.4,0C261.9,130.4,261.8,130.1,261.8,129.7z"/>
		<path fill="var(--color-white)" d="M332.7,135.6c2.3-3.8,6.8-5.7,11.1-5.9c-0.1,0.5,0.2,1.3-0.5,1.4c-2.1,0.4-4.1,1.4-5.3,3.1c-1.8,2.7-1.8,6.7,0.4,9.3
			c1.3,1.4,2.9,2.4,4.5,3.3c5,2.7,10.7,3.8,15.2,7.4c2.3,1.8,4,4.4,4.5,7.4c0.8,4.3-0.6,9-3.8,12c-3.1,3.2-7.5,4.6-11.9,4.9
			c0-0.3,0.1-0.8,0.1-1c2.8-0.3,5.9-1,7.8-3.3c1.9-2.2,2.2-5.4,1.7-8.2c-0.5-2.5-2.3-4.5-4.4-5.9c-4.7-3.1-10.4-4.4-15.1-7.6
			c-2.9-1.8-5.3-4.7-5.9-8.2C330.8,141.3,331,138.1,332.7,135.6z"/>
		<path fill="var(--color-white)" d="M347.1,129.8c2.7,0.1,5.1,1.2,7.7,1.8c1.1,0.3,2.5,0.4,3.1-0.8c0.4,0,0.7,0,1.1,0c0,3.6,0,7.2,0,10.8
			c-0.3,0-0.6,0.1-0.9,0.1c-0.6-3.2-1.8-6.6-4.5-8.6c-1.8-1.5-4.2-2.1-6.5-2.4C347.1,130.5,347.1,130,347.1,129.8z"/>
		<path fill="var(--color-white)" d="M374.9,136.4c3.8-3.9,9.1-6.2,14.5-6.6c0,0.3,0,0.7,0,1.1c-2.5,0.3-5.1,1.3-6.9,3.1c-2.4,2.2-3.7,5.3-4.5,8.4
			c-1.2,4.8-1.3,9.8-1.2,14.7c0.2,3.9,0.6,7.8,2,11.5c1,2.7,2.7,5.3,5.1,6.9c1.6,1.1,3.5,1.7,5.5,1.9c0,0.4,0.1,0.7,0.1,1.1
			c-5.3-0.4-10.6-2.6-14.3-6.5c-4.7-4.6-7.1-11.3-7-17.8C367.9,147.5,370.3,140.9,374.9,136.4z"/>
		<path fill="var(--color-white)" d="M392.6,129.8c6.2,0.3,12.1,3.4,15.9,8.2c3,3.6,4.7,8.1,5.2,12.8c0.8,6.7-0.7,13.8-5,19.1c-3.8,4.9-9.9,8-16.1,8.4
			c0-0.2,0.1-0.7,0.1-1c1.6-0.3,3.3-0.7,4.8-1.5c3.1-1.8,5.1-5,6.1-8.4c1.7-5.5,1.8-11.3,1.6-16.9c-0.3-4-0.8-8.2-2.4-11.9
			c-1.1-2.6-3-5.1-5.6-6.4c-1.4-0.8-3-1.1-4.5-1.3C392.7,130.4,392.7,130.1,392.6,129.8z"/>
		<path fill="var(--color-white)" d="M473.4,129.7c0.9,0,1.7,0,2.6,0c1.3,3.2,2.4,6.6,3.6,9.8c2.9,8.2,5.8,16.4,8.7,24.6c1.4,4,3,8,4.2,12c1.7,0.1,3.5,0,5.2,0
			c0,0.3,0,0.8,0,1.1c-6.3,0-12.5,0-18.7,0c0-0.3,0-0.8,0-1c1.7,0,3.4,0,5.1,0c-1.6-5-3.3-10-5.1-14.9c-3.9,0-7.8,0-11.8,0
			c0.2-0.4,0.2-1,0.6-1.3c3.6,0,7.1,0,10.7,0c-2.4-7.2-4.9-14.4-7.3-21.5c-0.2-0.6-0.4-1.2-0.2-1.7
			C471.8,134.3,472.7,132,473.4,129.7z"/>
		<path fill="var(--color-white)" d="M305.3,129.9c7,0,13.9,0,20.9,0c0,0.3,0,0.8,0,1.1c-2.2,0-4.3,0-6.5,0c0,15.4,0,30.8,0,46.1c2.2,0,4.3,0,6.5,0
			c0,0.3,0,0.8,0,1.1c-7,0-13.9,0-20.9,0c0-0.3,0-0.8,0-1.1c2.1,0,4.3,0,6.4,0c0-15.4,0-30.8,0-46.2c-2.1,0-4.3,0-6.4,0
			C305.3,130.7,305.3,130.2,305.3,129.9z"/>
		<path fill="var(--color-white)" d="M415.3,130.7c6.7,0,13.4,0,20.1,0c0,0.3-0.1,0.8-0.1,1c-2.1,0.1-4.1,0-6.2,0c4.4,12.5,8.6,25.1,12.9,37.6
			c0.3,0.7-0.1,1.4-0.3,2.1c-0.9,2.2-1.6,4.5-2.5,6.7c-0.6,0.3-1.4,0.1-2.1,0.1c-4.3-12.3-8.9-24.5-13.2-36.8
			c-1.2-3.2-2.3-6.5-3.5-9.7c-1.7,0-3.5,0-5.2,0C415.3,131.5,415.3,131,415.3,130.7z"/>
		<path fill="var(--color-white)" d="M448.2,130.7c3.8,0,7.7,0,11.5,0c0,0.3,0,0.8,0,1c-1.3,0-2.6-0.1-3.8,0.1c-4.2,11.2-8,22.5-12,33.7
			c-0.8,0.1-0.8-1.2-0.8-1.8c3.8-10.7,7.5-21.3,11.3-32c-2,0-4.1,0-6.1,0C448.2,131.5,448.2,131,448.2,130.7z"/>
		<path fill="var(--color-white)" d="M457.4,176.2c4-11.4,7.7-22.8,11.9-34.2c0.3,0.9,0.8,1.8,0.4,2.8c-3.6,10.5-7.3,20.9-10.8,31.4c2,0,4,0,6.1,0
			c0,0.3,0,0.8,0,1c-3.8,0-7.6,0-11.4,0c0-0.3,0-0.8,0-1.1C454.8,176.2,456.1,176.2,457.4,176.2z"/>
		<path fill="var(--color-white)" d="M331.5,162.7c0.2,0,0.7-0.1,0.9-0.1c-0.1,3.8,0.5,7.9,3,11c2,2.4,5.3,3.5,8.3,3.6c0,0.4,0,0.7,0,1.1
			c-2.3-0.1-4.6-0.6-6.7-1.4c-1.2-0.4-2.4-1-3.7-1c-0.8,0-1.3,0.6-1.6,1.3c-0.2,0-0.7,0.1-1,0.1C330.9,172.5,331.4,167.6,331.5,162.7
			z"/>
		<path fill="var(--color-white)" d="M149.2,72c0.2-0.4,0.2-0.9,0.6-1.2c0.8-0.1,1.7,0,2.5,0c5.3,15.5,11,30.9,16.3,46.3c1.7,0.1,3.5,0,5.2,0.1
			c0,0.2,0,0.7,0,1c-6.2,0-12.5,0-18.7,0c0-0.3,0-0.8,0-1.1c1.7,0,3.5,0.1,5.2-0.1c-1.8-4.9-3.4-9.9-5.1-14.8c-3.9,0-7.8,0-11.7,0
			c0.1-0.4,0.2-0.9,0.3-1.3c3.6,0,7.3,0.1,10.9-0.1c-2.5-7.6-5.2-15.1-7.7-22.6C147.7,76.2,148.5,74.1,149.2,72z"/>
		<path fill="var(--color-white)" d="M83.1,71.9c6.7,0,13.4,0,20.1,0c0,0.2,0,0.7,0,1c-2.1,0.1-4.1,0-6.2,0.1c0,14.8,0,29.5,0,44.3c2.1,0,4.1,0,6.2,0
			c0,0.3,0,0.8,0,1c-6.7,0-13.4,0-20,0c0-0.3,0-0.8,0-1.1c2,0,4,0,6.1,0c0-0.6,0.1-1.3,0.1-1.9c0-14.1,0-28.3,0-42.4c-2,0-4,0-6,0
			C83.2,72.6,83.2,72.2,83.1,71.9z"/>
		<path fill="var(--color-white)" d="M114.3,71.9c4.4-0.1,8.9,0,13.3,0c0,0.2-0.1,0.7-0.1,1c-2.1,0.2-4.2,0-6.3,0.1c-2,2-3.9,4.1-5.8,6.1
			c-3.4,3.4-6.7,6.8-10,10.3c-0.4,0.3,0.1,0.7,0.3,1c6.6,8.7,13.2,17.3,19.8,26c0.3,0.3,0.5,0.9,1.1,0.8c2.3,0,4.7,0,7,0
			c2.2-6.5,4.5-12.9,6.7-19.4c1.7-4.9,3.3-9.8,5.1-14.7c0.2,0.6,0.5,1.3,0.7,1.9c-0.1,0.6-0.4,1.2-0.6,1.9
			c-3.5,10.1-6.9,20.2-10.5,30.3c2.1,0,4.1,0,6.2,0c0,0.3,0,0.8,0,1.1c-9.5,0-19,0-28.5,0c0-0.3,0-0.8,0-1c1.4-0.1,2.7,0,4.1,0
			c-5.8-7.8-11.7-15.6-17.5-23.4c6.6-7,13.2-13.9,19.8-20.9c-1.5,0-3,0-4.5,0C114.5,72.6,114.4,72.3,114.3,71.9z"/>
		<path fill="var(--color-white)" d="M171.5,71.9c4.5-0.1,9-0.1,13.5,0c-0.1,0.3-0.1,0.7-0.2,1c-3.3,0-7.1,0.4-9.5,2.9c-1.7,1.6-2.4,4-2.9,6.3
			c-0.3,0-0.6,0-0.9,0C171.5,78.7,171.6,75.3,171.5,71.9z"/>
		<path fill="var(--color-white)" d="M188.2,71.9c2.6,0,5.1,0,7.7,0c0,15.1,0,30.2,0,45.3c2,0,4.1,0,6.1,0c0,0.3,0,0.8,0,1.1c-6.7,0-13.4,0-20,0
			c0-0.3,0-0.8,0-1c2.1-0.1,4.1,0,6.2,0C188.3,102.1,188.2,87,188.2,71.9z"/>
		<path fill="var(--color-white)" d="M199.3,71.9c4.4,0,8.9,0,13.3,0c0,3.4,0,6.9,0,10.3c-0.3-0.1-0.6-0.1-0.9-0.2c-0.3-2.8-1.6-5.7-4.1-7.2
			c-2.5-1.5-5.5-1.7-8.3-1.8C199.2,72.6,199.3,72.1,199.3,71.9z"/>
		<path fill="var(--color-white)" d="M233.2,71.9c4.6-0.2,9.6-0.5,13.7,2c3.1,1.7,4.8,5.3,4.9,8.8c0.2,3.4-0.7,7.1-3.3,9.4c-2,1.9-4.7,2.6-7.3,3.2
			c1.7,0.2,3.5,0.3,5.1,1.1c2,0.9,3.2,2.9,3.8,4.9c1.4,4.7,1.3,9.8,3,14.4c0.5,1.1,1.1,2.4,2.4,2.7c1.2,0.3,2-0.8,2.9-1.5
			c0.6,0.9-0.6,1.6-1.3,2c-2.1,0.9-4.4,0.7-6.6,0.3c-2.4-0.5-4.4-2.1-5.4-4.3c-2.3-4.8-2.1-10.3-4.1-15.2c-0.7-1.6-2-3-3.7-3.3
			c-1.5-0.2-3-0.1-4.5-0.1c0-0.2,0-0.7,0-1c2.5-0.3,5.2,0.4,7.7-0.6c2.4-1.2,2.9-4.2,3.2-6.6c0.1-3.6,0.4-7.3-0.6-10.7
			c-0.5-1.7-1.5-3.3-3.2-4c-2.2-0.9-4.7-0.4-7-0.6C232.6,72.4,232.7,72.1,233.2,71.9z"/>
		<path fill="var(--color-white)" d="M215.7,72c4.6,0,9.2,0,13.8,0c0,15.1,0,30.2,0,45.3c2.1,0,4.1,0,6.2,0c0,0.3,0,0.8,0,1c-6.7,0-13.4,0-20,0
			c0-0.3,0-0.8,0-1c2,0,4.1,0,6.1,0c0-14.8,0-29.5,0-44.3c-2,0-4.1,0-6.1,0C215.7,72.8,215.7,72.3,215.7,72z"/>
		<path fill="var(--color-white)" d="M260.4,72.1c6.7,0,13.3,0,20,0c0,0.3,0,0.8,0,1.1c-2,0-4.1,0-6.1,0c0,14.8,0,29.5,0,44.3c2,0,4.1,0,6.1,0
			c0,0.3,0,0.8,0,1c-6.7,0-13.3,0-20,0c0-0.3,0-0.7,0-1c2,0,4.1,0,6.1,0c0-14.8,0-29.5,0-44.3c-2,0-4.1,0.1-6.1-0.1
			C260.4,72.8,260.4,72.3,260.4,72.1z"/>
		<path fill="var(--color-white)" d="M283.3,72.1c3.8,0,7.7,0,11.5,0c0.5,0,1.2-0.1,1.4,0.5c5.5,7.3,11.1,14.5,16.6,21.8c3.4,4.5,7,9,10.3,13.6
			c0.1,3.7,0.1,7.4,0,11.1c-0.5,0-1,0-1.5,0c-10.7-14-21.2-28-31.8-42c-0.9-1.1-0.3-2.6-0.5-3.9c-2,0-4.1,0.1-6.1,0
			C283.3,72.8,283.3,72.3,283.3,72.1z"/>
		<path fill="var(--color-white)" d="M315.5,72c4.6,0,9.3,0,13.9,0c0,0.3,0,0.8,0,1c-2.1,0-4.1,0-6.2,0c0,10.2,0,20.5,0,30.7c-0.6-0.8-1.7-1.6-1.5-2.7
			c0-9.3,0-18.6,0-28c-2,0-4.1,0-6.1,0C315.5,72.8,315.5,72.3,315.5,72z"/>
		<path fill="var(--color-white)" d="M289.5,80c0.6,0.8,1.6,1.6,1.6,2.7c0,11.6,0,23.2,0,34.7c2,0,4.1,0,6.1,0c0.1,0.3,0.1,0.7,0.2,1c-4.7,0.1-9.3,0-14,0
			c0-0.3,0-0.7,0-1c2,0,4.1,0,6.1,0C289.5,104.9,289.4,92.4,289.5,80z"/>
	</symbol>

	<symbol id="vk" viewBox="0 0 1000 1000">
		<title>vk</title>
		<path fill="var(--color-white)" d="M491 747h52s16-1 24-10c7-8 7-23 7-23s-1-70 32-80c32-11 73 67 117 97 33 23 58 18 58 18l117-2s61-3 32-51c-3-4-17-36-87-101-73-68-64-57 25-174 53-72 75-116 68-135-6-17-46-13-46-13l-131 1s-10-1-17 3-12 14-12 14-21 56-48 103c-59 99-82 105-92 98-22-14-17-57-17-88 0-97 15-137-28-147-15-4-25-6-62-6-47-1-86 0-109 11-15 7-26 24-19 24 8 2 28 6 38 20 14 18 13 59 13 59s8 114-18 128c-17 10-42-10-94-100-27-46-47-98-47-98s-4-9-11-14c-8-6-20-8-20-8H91s-19 1-26 9c-6 7 0 22 0 22s98 229 209 345c101 105 217 98 217 98"/>
	</symbol>

	<symbol id="whatsapp" viewBox="0 0 1000 1000">
		<title>whatsapp</title>
		<path fill="var(--color-white)" d="M1000 487a489 489 0 0 1-728 427L0 1000l89-261A489 489 0 0 1 510 0c270 0 490 218 490 487zM509 78A412 412 0 0 0 96 487c0 90 30 173 79 240l-52 152 159-50a413 413 0 0 0 640-342c0-226-185-409-413-409zm248 521c-3-5-11-8-23-14l-82-38c-11-4-19-6-27 6s-31 38-38 46-14 9-27 3c-12-6-50-18-96-59-36-32-60-71-67-83s-1-18 5-24l18-21c6-7 8-12 12-20s2-15-1-21l-37-88c-10-24-20-20-27-20l-23-1c-8 0-21 3-32 15s-42 41-42 99c0 59 43 116 49 124s83 132 205 180 123 32 145 30 71-29 81-57 10-52 7-57z"/>
	</symbol>

	<symbol id="instagram" viewBox="0 0 1000 1000">
		<title>instagram</title>
		<path fill="var(--color-white)" d="M499 243a257 257 0 1 0 1 514 257 257 0 0 0-1-514zm0 415a159 159 0 1 1 0-318 159 159 0 0 1 0 318zM709 5H289A285 285 0 0 0 5 290v419c0 157 127 285 284 285h420c157 0 285-128 285-285V290C994 133 866 5 709 5zm187 704c0 103-84 187-187 187H289c-103 0-186-84-186-187V290c0-103 83-187 186-187h420c103 0 187 84 187 187v419zM760 169a67 67 0 1 0 0 134 67 67 0 0 0 0-134z"/>
	</symbol>

	<symbol id="facebook" viewBox="0 0 1000 1000">
	 	<title>facebook</title>
	 	<path fill="var(--color-white)" d="M703.2 345.8H564.6V255c0-34.1 22.7-42.1 38.6-42.1h97.6V63l-134.6-.5C416.9 62.5 383 174.3 383 245.9v99.9h-86.4v154.4H383v437.2h181.7V500.3h122.6l15.9-154.5z"/>
	</symbol>

	<symbol id="odnoklassniki" viewBox="0 0 95.481 95.481">
	 	<title>odnoklassniki</title>
 		<g>
			<path fill="var(--color-white)" d="M43.041,67.254c-7.402-0.772-14.076-2.595-19.79-7.064c-0.709-0.556-1.441-1.092-2.088-1.713
				c-2.501-2.402-2.753-5.153-0.774-7.988c1.693-2.426,4.535-3.075,7.489-1.682c0.572,0.27,1.117,0.607,1.639,0.969
				c10.649,7.317,25.278,7.519,35.967,0.329c1.059-0.812,2.191-1.474,3.503-1.812c2.551-0.655,4.93,0.282,6.299,2.514
				c1.564,2.549,1.544,5.037-0.383,7.016c-2.956,3.034-6.511,5.229-10.461,6.761c-3.735,1.448-7.826,2.177-11.875,2.661
				c0.611,0.665,0.899,0.992,1.281,1.376c5.498,5.524,11.02,11.025,16.5,16.566c1.867,1.888,2.257,4.229,1.229,6.425
				c-1.124,2.4-3.64,3.979-6.107,3.81c-1.563-0.108-2.782-0.886-3.865-1.977c-4.149-4.175-8.376-8.273-12.441-12.527
				c-1.183-1.237-1.752-1.003-2.796,0.071c-4.174,4.297-8.416,8.528-12.683,12.735c-1.916,1.889-4.196,2.229-6.418,1.15
				c-2.362-1.145-3.865-3.556-3.749-5.979c0.08-1.639,0.886-2.891,2.011-4.014c5.441-5.433,10.867-10.88,16.295-16.322
				C42.183,68.197,42.518,67.813,43.041,67.254z"/>
			<path fill="var(--color-white)" d="M47.55,48.329c-13.205-0.045-24.033-10.992-23.956-24.218C23.67,10.739,34.505-0.037,47.84,0
				c13.362,0.036,24.087,10.967,24.02,24.478C71.792,37.677,60.889,48.375,47.55,48.329z M59.551,24.143
				c-0.023-6.567-5.253-11.795-11.807-11.801c-6.609-0.007-11.886,5.316-11.835,11.943c0.049,6.542,5.324,11.733,11.896,11.709
				C54.357,35.971,59.573,30.709,59.551,24.143z"/>
		</g>
	</symbol>

	<symbol id="share" viewBox="0 0 456 500">
	 	<title>will-share</title>
	 	<path fill="var(--color-white)" d=" M 351.55 4.42 C 372.94 -0.76 396.57 2.84 415.05 14.92 C 429.81 24.15 441.25 38.38 447.59 54.55 C 455.12 73.00 455.21 94.33 448.13 112.94 C 438.90 139.01 415.51 159.22 388.56 165.07 C 370.70 168.62 351.48 167.01 335.13 158.67 C 325.59 154.47 317.78 147.46 310.09 140.60 C 260.33 168.36 211.20 197.25 161.53 225.16 C 161.82 227.73 162.47 230.23 163.05 232.75 C 164.96 241.76 165.18 251.10 164.08 260.23 C 163.57 264.82 162.16 269.25 161.54 273.81 C 211.20 301.79 260.47 330.48 310.17 358.40 C 315.50 353.61 320.79 348.72 326.87 344.88 C 339.74 336.87 354.74 332.03 369.98 332.22 C 389.94 331.49 409.71 339.27 424.77 352.18 C 447.92 371.95 458.67 405.17 450.82 434.68 C 446.59 450.36 438.09 465.06 425.88 475.87 C 415.20 485.44 402.10 492.39 387.98 495.12 C 366.53 499.62 343.12 495.47 325.04 482.93 C 310.14 473.01 298.84 457.98 293.03 441.09 C 287.70 426.44 287.46 410.27 290.77 395.14 C 270.84 383.38 250.59 372.16 230.55 360.59 C 200.37 343.39 170.21 326.13 139.97 309.02 C 133.12 314.34 126.44 320.03 118.45 323.62 C 108.30 328.30 97.29 331.98 85.98 331.76 C 79.67 331.71 73.28 332.09 67.07 330.73 C 57.31 328.63 47.87 324.96 39.38 319.70 C 25.96 311.67 15.26 299.49 8.30 285.56 C 3.07 274.99 0.68 263.25 0.00 251.54 L 0.00 248.43 C 0.59 232.71 4.78 216.84 13.91 203.87 C 24.95 186.84 42.74 174.72 62.23 169.44 C 72.00 166.47 82.36 167.15 92.42 167.49 C 106.02 169.42 119.30 174.45 130.44 182.55 C 133.73 184.88 136.64 187.71 139.97 189.98 C 190.28 161.36 240.66 132.83 290.78 103.88 C 289.47 97.67 288.50 91.36 288.66 85.00 C 288.13 67.81 294.09 50.83 303.85 36.82 C 315.13 20.75 332.36 8.78 351.55 4.42 Z" />
	</symbol>

	<symbol id="play" viewBox="0 0 41.999 41.999">
	 	<title>play</title>
	 	<path fill="var(--color-white)" d="M36.068,20.176l-29-20C6.761-0.035,6.363-0.057,6.035,0.114C5.706,0.287,5.5,0.627,5.5,0.999v40
	c0,0.372,0.206,0.713,0.535,0.886c0.146,0.076,0.306,0.114,0.465,0.114c0.199,0,0.397-0.06,0.568-0.177l29-20
	c0.271-0.187,0.432-0.494,0.432-0.823S36.338,20.363,36.068,20.176z"/>
	</symbol>

	<symbol id="prev" viewBox="0 0 492 492">
	 	<title>prev</title>
	 	<path fill="var(--color-white)" d="M198.608,246.104L382.664,62.04c5.068-5.056,7.856-11.816,7.856-19.024c0-7.212-2.788-13.968-7.856-19.032l-16.128-16.12
		C361.476,2.792,354.712,0,347.504,0s-13.964,2.792-19.028,7.864L109.328,227.008c-5.084,5.08-7.868,11.868-7.848,19.084
		c-0.02,7.248,2.76,14.028,7.848,19.112l218.944,218.932c5.064,5.072,11.82,7.864,19.032,7.864c7.208,0,13.964-2.792,19.032-7.864
		l16.124-16.12c10.492-10.492,10.492-27.572,0-38.06L198.608,246.104z"/>
	</symbol>

	<symbol id="next" viewBox="0 0 492.004 492.004">
	 	<title>next</title>
        <path fill="var(--color-white)" d="M382.678,226.804L163.73,7.86C158.666,2.792,151.906,0,144.698,0s-13.968,2.792-19.032,7.86l-16.124,16.12
		c-10.492,10.504-10.492,27.576,0,38.064L293.398,245.9l-184.06,184.06c-5.064,5.068-7.86,11.824-7.86,19.028
		c0,7.212,2.796,13.968,7.86,19.04l16.124,16.116c5.068,5.068,11.824,7.86,19.032,7.86s13.968-2.792,19.032-7.86L382.678,265
		c5.076-5.084,7.864-11.872,7.848-19.088C390.542,238.668,387.754,231.884,382.678,226.804z"/>
	</symbol>

	<symbol id="full-screen" viewBox="0 0 357 357">
	 	<title>full-screen</title>
        <path fill="var(--color-white)" d="M0,280.5h76.5V357h51V229.5H0V280.5z M76.5,76.5H0v51h127.5V0h-51V76.5z M229.5,357h51v-76.5H357v-51H229.5V357z
			 M280.5,76.5V0h-51v127.5H357v-51H280.5z"/>
	</symbol>

</svg>
